PathFileType	4	(X/Y/Z)	C:/Users/beibeiliu/ov580/test_trc\sequence.18_training_dense_left.trc
DataRate	CameraRate	NumFrames	NumMarkers	Units	OrigDataRate	OrigDataStartFrame	OrigNumFrames
120	120	14	19	mm	120	1	82
Frame#	Time	ThumbCMC			ThumbMCP			ThumbIP			ThumbTip			IndexMCP			IndexPIP			IndexTip			MiddleMCP			MiddlePIP			MiddleTip			RingMCP			RingPIP			RingTip			PinkyMCP			PinkyPIP			PinkyTip			BackHand1			BackHand2			BackHand3	
		X0	Y0	Z0	X1	Y1	Z1	X2	Y2	Z2	X3	Y3	Z3	X4	Y4	Z4	X5	Y5	Z5	X6	Y6	Z6	X7	Y7	Z7	X8	Y8	Z8	X9	Y9	Z9	X10	Y10	Z10	X11	Y11	Z11	X12	Y12	Z12	X13	Y13	Z13	X14	Y14	Z14	X15	Y15	Z15	X16	Y16	Z16	X17	Y17	Z17	X18	Y18	Z18	
0	0	-123.312	43.0685	37.5834	-109.844	20.7462	22.9346	-98.8311	6.65067	5.64281	-96.3292	-9.63971	-13.8727	-123.94	32.3719	-29.5345	-114.693	14.4245	-44.3671	-107.334	-13.3582	-53.6141	-143.711	28.2838	-38.2525	-139.917	10.1848	-58.283	-136.396	-15.7996	-68.8752	-162.222	23.459	-35.2598	-160.358	9.62796	-50.9084	-156.107	-10.5123	-62.3712	-185.219	17.2008	-22.2039	-184.116	5.14359	-34.0633	-177.527	-11.0583	-48.8936	-170.136	50.0658	3.26109	-175.341	59.9211	32.4712	-147.866	61.0984	18.3765	
1	0.00833333	-125.552	41.0863	35.2812	-109.994	20.0076	21.7638	-104.738	6.54068	5.02679	-97.754	-10.5443	-12.5596	-124.699	31.1093	-30.9918	-116.061	10.6245	-47.6246	-110.134	-15.2526	-53.5422	-143.278	26.7489	-40.5173	-140.09	11.8309	-57.1025	-137.249	-16.7859	-68.6428	-167.692	23.3959	-33.9898	-160.034	8.66345	-50.9524	-155.003	-15.1698	-65.0144	-183.771	19.3111	-19.0029	-184.813	1.01901	-37.7897	-181.919	-11.2596	-49.1064	-173.52	48.8314	6.71322	-174.733	59.8471	29.5013	-147.294	59.203	16.9413	
2	0.0166667	-126.732	40.5888	37.172	-112.925	20.1589	24.3251	-101.861	3.61239	3.3993	-99.4142	-8.98673	-8.16475	-119.406	28.808	-32.3581	-117.047	11.7044	-46.019	-107.132	-11.5214	-51.7425	-146.705	27.7821	-38.1331	-140.61	9.9941	-57.3904	-135.121	-15.0109	-68.0792	-163.42	24.8676	-32.0476	-159.841	4.45229	-53.4378	-156.552	-15.541	-63.7473	-186.014	18.6092	-20.6797	-185.884	1.80085	-35.8954	-180.367	-12.5731	-47.3048	-174.686	48.9716	5.70974	-174.426	58.0791	29.555	-149.839	58.9745	19.3476	
3	0.025	-123.417	39.3415	32.8079	-113.72	18.6077	21.0927	-104.281	3.83826	4.73452	-98.8068	-9.9052	-6.92727	-122.905	28.2673	-32.5609	-112.86	9.0479	-47.2489	-113.105	-11.4503	-52.54	-145.141	28.1596	-36.7882	-140.87	7.71866	-58.6759	-137.804	-16.9555	-68.2693	-163.323	23.0076	-34.6164	-161.412	4.3206	-52.683	-155.981	-11.5211	-61.6745	-181.957	19.2447	-19.6794	-182.455	3.89285	-37.4	-181.371	-12.0329	-49.5196	-172.939	46.8733	3.37341	-178.621	56.7694	27.8606	-148.564	58.391	16.4576	
4	0.0333333	-128.228	38.9477	35.7823	-112.158	17.4146	18.7941	-101.73	3.52569	5.15135	-97.2165	-11.4825	-10.758	-121.215	32.2526	-30.1671	-115.606	14.6556	-46.2257	-108.621	-9.28421	-53.2352	-141.982	28.0082	-42.2564	-137.268	7.34901	-59.5466	-134.94	-13.731	-68.4946	-167.451	22.3713	-34.0641	-158.848	4.85769	-54.4621	-154.886	-15.6838	-63.1566	-186.347	16.7251	-22.0662	-180.215	5.63682	-37.2167	-178.912	-11.8212	-50.6522	-174.195	48.2624	3.83259	-173.112	57.1017	27.781	-149.409	56.9602	17.1939	
5	0.0416667	-127.351	40.3429	30.0561	-113.276	20.9028	15.9498	-104.348	7.36319	-3.41067	-97.7939	-7.21231	-17.4412	-122.011	40.3106	-31.0209	-118.733	18.4006	-51.0684	-109.947	-1.90554	-55.4796	-146.36	34.052	-43.1337	-137.968	17.4349	-61.3967	-135.553	-9.24979	-69.191	-167.512	28.4168	-36.5771	-159.519	10.3726	-56.9741	-153.147	-7.68071	-63.7421	-183.488	22.8281	-25.1349	-178.626	11.7773	-39.5606	-173.29	-7.67359	-51.2689	-172.571	51.7857	7.54324	-176.787	56.6068	30.0771	-147.811	60.5654	19.2418	
6	0.05	-126.037	47.1933	27.6337	-111.569	28.1474	9.7404	-106.803	16.7668	-6.00364	-100.917	5.898	-24.6543	-127.99	51.0707	-38.4029	-118.173	37.1631	-52.1034	-112.644	12.1125	-58.6719	-149.339	46.5149	-46.0532	-139.055	32.8677	-63.459	-130.513	2.11961	-69.9116	-164.478	41.1839	-36.8113	-157.711	24.2246	-58.3142	-143.205	1.68536	-65.3071	-184.627	29.4706	-28.8291	-174.961	16.2437	-47.2576	-164.674	1.50484	-55.7351	-173.699	55.2159	7.90711	-180.827	58.2687	31.8734	-154.838	67.3816	20.3091	
7	0.0583333	-127.678	55.2763	28.9839	-113.221	38.2256	6.8551	-103.649	29.8585	-16.9119	-98.9096	19.3729	-33.9213	-131.238	66.3974	-39.3739	-118.663	48.1364	-56.5834	-113.554	26.3669	-60.5329	-150.371	59.1866	-47.264	-140.315	44.039	-65.458	-123.781	14.1413	-65.4004	-165.653	50.675	-40.3771	-157.86	32.0208	-60.4823	-142.728	13.2187	-62.3797	-183.397	37.5831	-34.4793	-172.816	28.3853	-48.5918	-154.887	10.3165	-56.286	-181.324	58.6455	6.48564	-182.312	60.3674	29.7987	-155.921	75.4389	19.9148	
8	0.0666667	-128.028	60.7261	23.605	-114.125	46.405	-0.264977	-108.596	39.5722	-20.353	-104.213	30.4879	-43.1429	-135.196	76.4098	-38.23	-121.469	57.5561	-58.6201	-106.875	34.3128	-58.2226	-152.942	68.0147	-44.9938	-140.42	47.529	-67.0192	-124.22	23.9032	-61.8758	-167.745	55.027	-43.6158	-155.374	38.5012	-60.9313	-134.111	20.5998	-56.9721	-183.671	41.6853	-31.8196	-170.619	34.3501	-49.9963	-150.842	18.0922	-55.7512	-179.516	61.8463	4.80436	-182.781	59.0607	32.3518	-158.844	76.0572	20.4136	
9	0.075	-129.852	63.8865	23.6458	-109.527	52.0753	-2.28748	-103.4	45.9148	-21.9005	-106.34	35.564	-42.0668	-136.684	80.6802	-39.8413	-127.311	65.5064	-58.0392	-110.738	41.5712	-59.5054	-152.928	71.0064	-47.6268	-137.893	54.4485	-66.2989	-122.113	29.9562	-58.6435	-165.635	58.5915	-44.9714	-155.313	40.7524	-61.0156	-133.342	24.5005	-53.4	-179.561	44.9254	-30.9022	-167	33.597	-51.7839	-146.748	23.3206	-53.1863	-182.49	60.4612	5.02718	-182.297	59.6596	28.5434	-159.631	78.025	21.2006	
10	0.0833333	-128.372	65.6212	21.0767	-111.775	53.1012	-2.83915	-106.309	45.9908	-25.3769	-106.764	35.5662	-47.5671	-140.101	79.5496	-40.7684	-125.643	67.1548	-57.646	-110.824	41.1285	-57.4032	-154.59	69.8336	-49.1448	-139.46	54.8634	-64.9976	-124.516	28.7029	-56.429	-171.074	53.483	-43.6548	-154.138	40.8247	-60.3479	-130.863	25.1525	-50.3385	-179.545	43.7839	-31.4339	-166.645	34.5435	-52.3981	-145.898	24.1872	-52.0417	-182.667	58.5882	5.67793	-180.952	56.9758	27.7498	-162.742	76.5478	20.2625	
11	0.0916667	-131.572	60.7548	23.0261	-109.987	50.8336	-2.34901	-105.952	44.0619	-25.2984	-111.556	33.59	-45.3121	-139.803	79.8775	-41.1201	-125.985	64.3241	-58.7478	-114.668	42.7326	-58.1675	-156.802	70.013	-46.2412	-142.013	51.419	-66.2589	-124.26	26.2504	-54.0078	-172.247	54.8682	-41.6312	-154.568	43.3293	-59.4549	-136.877	24.1698	-52.1036	-179.852	45.0296	-36.3923	-169.736	36.5539	-51.0383	-147.695	20.5544	-52.3056	-184.491	60.1519	4.37353	-184.216	55.291	29.8361	-159.504	75.8631	18.7114	
12	0.1	-133.222	59.9979	18.2828	-118.294	45.1487	-3.91505	-109.451	37.3591	-26.3394	-113.532	27.5999	-48.1257	-139.304	78.3408	-42.9441	-126.872	62.7545	-59.7553	-118.082	39.3881	-58.1377	-156.085	69.8997	-48.3674	-144.462	48.0641	-66.1931	-132.736	24.1437	-55.3703	-175.975	55.2536	-43.654	-155.621	40.7087	-59.8465	-141.575	21.494	-49.6091	-187.155	43.7584	-32.7102	-175.742	35.013	-50.8172	-151.746	19.7	-51.2221	-180.792	63.4888	3.06968	-182.543	58.2512	32.1456	-160.555	74.054	20.1627	
13	0.108333	-133.064	57.0097	21.867	-117.897	40.7148	-4.72252	-114.818	31.8298	-27.1307	-120.82	19.8135	-47.1231	-144.109	74.2112	-41.1937	-132.8	58.2897	-60.6714	-122.497	28.9967	-52.8634	-158.962	66.2212	-51.2255	-146.624	43.3639	-64.8414	-136.825	21.0539	-49.2966	-175.475	54.9504	-45.4034	-163.39	37.3721	-57.8628	-147.568	18.8033	-45.3113	-187.284	46.0514	-36.332	-175.774	28.617	-49.4811	-156.389	17.1871	-44.1685	-182.811	65.8011	2.23697	-184.891	65.4402	29.447	-161.623	77.7767	21.1935	
